<svg width="25" height="25" viewBox="0 0 25 25" fill="none" xmlns="http://www.w3.org/2000/svg">
<path d="M10.1116 8.63859C9.70475 8.2318 9.04521 8.2318 8.63841 8.63859C8.23162 9.04539 8.23162 9.70493 8.63841 10.1117L11.0269 12.5002L8.63841 14.8886C8.23162 15.2954 8.23162 15.955 8.63841 16.3617C9.04521 16.7685 9.70475 16.7685 10.1116 16.3617L12.5 13.9733L14.8884 16.3617C15.2952 16.7685 15.9548 16.7685 16.3615 16.3617C16.7683 15.955 16.7683 15.2954 16.3615 14.8886L13.9731 12.5002L16.3615 10.1117C16.7683 9.70493 16.7683 9.04539 16.3615 8.63859C15.9548 8.2318 15.2952 8.2318 14.8884 8.63859L12.5 11.027L10.1116 8.63859Z" fill="#8C8C8C"/>
<path fill-rule="evenodd" clip-rule="evenodd" d="M12.5 2.0835C6.74701 2.0835 2.08331 6.74719 2.08331 12.5002C2.08331 18.2531 6.74701 22.9168 12.5 22.9168C18.2529 22.9168 22.9166 18.2531 22.9166 12.5002C22.9166 6.74719 18.2529 2.0835 12.5 2.0835ZM4.16665 12.5002C4.16665 7.89779 7.8976 4.16683 12.5 4.16683C17.1024 4.16683 20.8333 7.89779 20.8333 12.5002C20.8333 17.1026 17.1024 20.8335 12.5 20.8335C7.8976 20.8335 4.16665 17.1026 4.16665 12.5002Z" fill="#8C8C8C"/>
</svg>
