<svg width="80" height="80" viewBox="0 0 80 80" fill="none" xmlns="http://www.w3.org/2000/svg">
<path d="M40 80C34.4667 80 29.2667 78.95 24.4 76.85C19.5333 74.75 15.3 71.9 11.7 68.3C8.1 64.7 5.25 60.4667 3.15 55.6C1.05 50.7333 0 45.5333 0 40C0 34.4667 1.05 29.2667 3.15 24.4C5.25 19.5333 8.1 15.3 11.7 11.7C15.3 8.1 19.5333 5.25 24.4 3.15C29.2667 1.05 34.4667 0 40 0C45.5333 0 50.7333 1.05 55.6 3.15C60.4667 5.25 64.7 8.1 68.3 11.7C71.9 15.3 74.75 19.5333 76.85 24.4C78.95 29.2667 80 34.4667 80 40C80 45.5333 78.95 50.7333 76.85 55.6C74.75 60.4667 71.9 64.7 68.3 68.3C64.7 71.9 60.4667 74.75 55.6 76.85C50.7333 78.95 45.5333 80 40 80ZM40 72C48.9333 72 56.5 68.9 62.7 62.7C68.9 56.5 72 48.9333 72 40C72 31.0667 68.9 23.5 62.7 17.3C56.5 11.1 48.9333 8 40 8C31.0667 8 23.5 11.1 17.3 17.3C11.1 23.5 8 31.0667 8 40C8 48.9333 11.1 56.5 17.3 62.7C23.5 68.9 31.0667 72 40 72ZM28 60H52V52H36V44H44C46.2 44 48.0833 43.2167 49.65 41.65C51.2167 40.0833 52 38.2 52 36V28C52 25.8 51.2167 23.9167 49.65 22.35C48.0833 20.7833 46.2 20 44 20H28V28H44V36H36C33.8 36 31.9167 36.7833 30.35 38.35C28.7833 39.9167 28 41.8 28 44V60Z" fill="black"/>
</svg>
