<svg width="55" height="55" viewBox="0 0 55 55" fill="none" xmlns="http://www.w3.org/2000/svg">
<g clip-path="url(#clip0_711_4477)">
<path d="M5.33333 54.7333C3.86667 54.7333 2.61067 54.2107 1.56533 53.1653C0.521777 52.1218 0 50.8667 0 49.4V12.0667C0 10.6 0.521777 9.344 1.56533 8.29867C2.61067 7.25511 3.86667 6.73333 5.33333 6.73333H29.1333L23.8 12.0667H5.33333V49.4H42.6667V30.8667L48 25.5333V49.4C48 50.8667 47.4782 52.1218 46.4347 53.1653C45.3893 54.2107 44.1333 54.7333 42.6667 54.7333H5.33333ZM35.1333 8.26667L38.9333 12L21.3333 29.6V33.4H25.0667L42.7333 15.7333L46.5333 19.4667L27.3333 38.7333H16V27.4L35.1333 8.26667ZM46.5333 19.4667L35.1333 8.26667L41.8 1.6C42.8667 0.533334 44.1449 0 45.6347 0C47.1227 0 48.3778 0.533334 49.4 1.6L53.1333 5.4C54.1556 6.42222 54.6667 7.66667 54.6667 9.13333C54.6667 10.6 54.1556 11.8444 53.1333 12.8667L46.5333 19.4667Z" fill="black"/>
</g>
<defs>
<clipPath id="clip0_711_4477">
<rect width="54.6667" height="54.7333" fill="white"/>
</clipPath>
</defs>
</svg>
