<svg width="16" height="16" viewBox="0 0 16 16" fill="none" xmlns="http://www.w3.org/2000/svg">
<g clip-path="url(#clip0_438_3615)">
<path fill-rule="evenodd" clip-rule="evenodd" d="M8 0.833496C12.1423 0.833496 15.5 4.27594 15.5 8.52319C15.5 11.9199 13.3535 14.8015 10.3752 15.8192C9.995 15.895 9.86 15.6548 9.86 15.4501C9.86 15.1966 9.869 14.3686 9.869 13.3396C9.869 12.6226 9.629 12.1546 9.35975 11.9161C11.03 11.7256 12.785 11.0753 12.785 8.12183C12.785 7.28183 12.494 6.59636 12.0125 6.05786C12.0905 5.86361 12.3477 5.08146 11.939 4.02246C11.939 4.02246 11.3105 3.81641 9.87875 4.81091C9.2795 4.64066 8.6375 4.555 8 4.552C7.3625 4.555 6.72125 4.64066 6.12275 4.81091C4.6895 3.81641 4.0595 4.02246 4.0595 4.02246C3.65225 5.08146 3.9095 5.86361 3.98675 6.05786C3.5075 6.59636 3.21425 7.28183 3.21425 8.12183C3.21425 11.0678 4.9655 11.7281 6.63125 11.9224C6.41675 12.1144 6.2225 12.4531 6.155 12.9503C5.7275 13.1468 4.6415 13.4869 3.9725 12.3116C3.9725 12.3116 3.57575 11.5728 2.82275 11.5188C2.82275 11.5188 2.0915 11.5091 2.77175 11.9861C2.77175 11.9861 3.263 12.2223 3.60425 13.1111C3.60425 13.1111 4.0445 14.4836 6.131 14.0186C6.13475 14.6613 6.1415 15.2671 6.1415 15.4501C6.1415 15.6533 6.0035 15.8912 5.62925 15.8199C2.64875 14.8037 0.5 11.9207 0.5 8.52319C0.5 4.27594 3.8585 0.833496 8 0.833496Z" fill="#2B2B2B"/>
</g>
<defs>
<clipPath id="clip0_438_3615">
<rect width="15" height="15" fill="white" transform="translate(0.5 0.833496)"/>
</clipPath>
</defs>
</svg>
