<svg width="146" height="87" viewBox="0 0 146 87" fill="none" xmlns="http://www.w3.org/2000/svg">
<rect x="2.0119" y="27.3299" width="48" height="68" rx="9" transform="rotate(-32.1582 2.0119 27.3299)" fill="white"/>
<rect x="2.0119" y="27.3299" width="48" height="68" rx="9" transform="rotate(-32.1582 2.0119 27.3299)" stroke="#6DB7EB" stroke-width="2"/>
<path d="M36.4521 24.7371L55.807 55.5219L49.2983 59.614L33.8276 35.0072L33.6473 35.1207L29.3759 43.9723L25.7469 38.2002L30.3343 28.5835L36.4521 24.7371Z" fill="#2B2B2B"/>
<rect x="49.4268" y="2.33887" width="48" height="68" rx="9" fill="white"/>
<rect x="49.4268" y="2.33887" width="48" height="68" rx="9" stroke="#6DB7EB" stroke-width="2"/>
<path d="M60.6271 54.8389V49.2991L73.571 37.314C74.6719 36.2487 75.5952 35.2899 76.3409 34.4376C77.0985 33.5853 77.6726 32.7508 78.0632 31.934C78.4538 31.1054 78.6491 30.2117 78.6491 29.2529C78.6491 28.1876 78.4065 27.2702 77.9212 26.5008C77.4358 25.7195 76.773 25.1218 75.9325 24.7075C75.0921 24.2813 74.1392 24.0683 73.0739 24.0683C71.9612 24.0683 70.9905 24.2932 70.1619 24.743C69.3333 25.1928 68.6941 25.8379 68.2443 26.6784C67.7945 27.5188 67.5696 28.519 67.5696 29.6791H60.272C60.272 27.2998 60.8106 25.2342 61.8878 23.4823C62.965 21.7304 64.4742 20.3751 66.4155 19.4163C68.3568 18.4575 70.594 17.9781 73.1271 17.9781C75.7313 17.9781 77.9981 18.4397 79.9276 19.363C81.8688 20.2745 83.3781 21.541 84.4553 23.1627C85.5324 24.7844 86.071 26.6428 86.071 28.738C86.071 30.1111 85.7988 31.4665 85.2543 32.8041C84.7216 34.1417 83.7687 35.6272 82.3956 37.2607C81.0225 38.8824 79.0871 40.8296 76.5895 43.1024L71.2805 48.3048V48.5534H86.5504V54.8389H60.6271Z" fill="#2B2B2B"/>
<rect x="101.593" y="2.69053" width="48" height="68" rx="9" transform="rotate(27.8954 101.593 2.69053)" fill="white"/>
<rect x="101.593" y="2.69053" width="48" height="68" rx="9" transform="rotate(27.8954 101.593 2.69053)" stroke="#6DB7EB" stroke-width="2"/>
<path d="M97.9285 60.7161C95.5851 59.4756 93.7112 57.9679 92.3068 56.1932C90.9184 54.4136 90.0725 52.5327 89.7691 50.5506C89.4816 48.5635 89.8179 46.6253 90.7778 44.7361L97.6198 48.358C97.2462 49.1648 97.137 49.9909 97.2921 50.8365C97.4633 51.6771 97.8605 52.47 98.4839 53.2152C99.1073 53.9604 99.916 54.5961 100.91 55.1222C101.946 55.6704 102.958 55.972 103.947 56.0267C104.936 56.0814 105.827 55.9036 106.62 55.4931C107.413 55.0826 108.034 54.4536 108.483 53.6062C108.937 52.7484 109.098 51.8625 108.965 50.9487C108.849 50.0299 108.446 49.1469 107.756 48.2995C107.077 47.4577 106.13 46.7156 104.917 46.0732L101.919 44.4865L104.561 39.4963L107.558 41.0829C108.584 41.6257 109.583 41.9269 110.556 41.9865C111.539 42.0517 112.416 41.8868 113.188 41.4917C113.965 41.0861 114.578 40.4596 115.027 39.6122C115.453 38.8067 115.634 37.9981 115.568 37.1864C115.518 36.3698 115.239 35.6061 114.731 34.8953C114.234 34.1901 113.53 33.5966 112.62 33.1148C111.7 32.6274 110.769 32.349 109.828 32.2795C108.892 32.1995 108.034 32.3411 107.252 32.7042C106.471 33.0673 105.848 33.6485 105.385 34.4479L98.8727 31.0005C99.8844 29.1654 101.277 27.813 103.05 26.9434C104.822 26.0738 106.788 25.7012 108.945 25.8254C111.119 25.9447 113.304 26.5859 115.501 27.7489C117.719 28.9229 119.446 30.353 120.683 32.0391C121.92 33.7253 122.636 35.4972 122.831 37.3551C123.042 39.208 122.694 40.979 121.787 42.6683C120.844 44.4733 119.49 45.6782 117.723 46.2832C115.967 46.8937 114.103 46.8848 112.132 46.2566L111.999 46.5077C114.203 48.0627 115.568 49.8365 116.093 51.8291C116.635 53.8167 116.372 55.8069 115.303 57.7995C114.345 59.6359 112.955 60.983 111.135 61.8409C109.325 62.7043 107.273 63.0512 104.979 62.8814C102.685 62.7116 100.335 61.9899 97.9285 60.7161Z" fill="#2B2B2B"/>
</svg>
