<svg width="74" height="36" viewBox="0 0 74 36" fill="none" xmlns="http://www.w3.org/2000/svg">
<path d="M2.65418 31.2464L15.9715 28.4467L11.3743 20.799L2.65418 31.2464Z" fill="white"/>
<rect width="64" height="32" rx="10" transform="matrix(-1 0 0 1 74 0)" fill="white"/>
<path d="M29.1319 10.076H30.0919V20.936H29.1319V10.076ZM24.4159 14.516H27.1519V15.32H24.4159V14.516ZM26.8759 10.364H27.8119V20.384H26.8759V10.364ZM24.5479 11.456H25.5079C25.5079 12.4 25.3719 13.308 25.0999 14.18C24.8359 15.044 24.4039 15.852 23.8039 16.604C23.2039 17.348 22.4159 18.012 21.4399 18.596L20.8639 17.876C21.7119 17.364 22.4079 16.788 22.9519 16.148C23.4959 15.5 23.8959 14.8 24.1519 14.048C24.4159 13.288 24.5479 12.484 24.5479 11.636V11.456ZM21.3319 11.456H24.9199V12.272H21.3319V11.456ZM39.5709 10.088H40.5669V16.28H39.5709V10.088ZM33.5589 16.868H40.5669V20.792H33.5589V16.868ZM39.5949 17.672H34.5309V19.976H39.5949V17.672ZM34.7469 10.652C35.2989 10.652 35.7869 10.76 36.2109 10.976C36.6349 11.192 36.9669 11.492 37.2069 11.876C37.4549 12.252 37.5789 12.692 37.5789 13.196C37.5789 13.692 37.4549 14.132 37.2069 14.516C36.9669 14.892 36.6349 15.188 36.2109 15.404C35.7869 15.62 35.2989 15.728 34.7469 15.728C34.2029 15.728 33.7149 15.62 33.2829 15.404C32.8589 15.188 32.5229 14.892 32.2749 14.516C32.0349 14.132 31.9149 13.692 31.9149 13.196C31.9149 12.692 32.0349 12.252 32.2749 11.876C32.5229 11.492 32.8589 11.192 33.2829 10.976C33.7149 10.76 34.2029 10.652 34.7469 10.652ZM34.7469 11.492C34.3949 11.492 34.0789 11.564 33.7989 11.708C33.5189 11.852 33.2949 12.052 33.1269 12.308C32.9669 12.556 32.8869 12.852 32.8869 13.196C32.8869 13.524 32.9669 13.816 33.1269 14.072C33.2949 14.328 33.5189 14.528 33.7989 14.672C34.0789 14.816 34.3949 14.888 34.7469 14.888C35.1069 14.888 35.4269 14.816 35.7069 14.672C35.9869 14.528 36.2069 14.328 36.3669 14.072C36.5269 13.816 36.6069 13.524 36.6069 13.196C36.6069 12.852 36.5269 12.556 36.3669 12.308C36.2069 12.052 35.9869 11.852 35.7069 11.708C35.4269 11.564 35.1069 11.492 34.7469 11.492ZM47.454 16.892C48.19 16.892 48.822 16.972 49.35 17.132C49.886 17.292 50.298 17.52 50.586 17.816C50.874 18.112 51.018 18.472 51.018 18.896C51.018 19.32 50.874 19.684 50.586 19.988C50.298 20.292 49.886 20.524 49.35 20.684C48.822 20.844 48.19 20.924 47.454 20.924C46.718 20.924 46.082 20.844 45.546 20.684C45.01 20.524 44.598 20.292 44.31 19.988C44.022 19.684 43.878 19.32 43.878 18.896C43.878 18.472 44.022 18.112 44.31 17.816C44.598 17.52 45.01 17.292 45.546 17.132C46.082 16.972 46.718 16.892 47.454 16.892ZM47.454 17.684C46.918 17.684 46.454 17.732 46.062 17.828C45.678 17.924 45.382 18.064 45.174 18.248C44.966 18.424 44.862 18.64 44.862 18.896C44.862 19.16 44.966 19.384 45.174 19.568C45.382 19.752 45.678 19.892 46.062 19.988C46.454 20.084 46.918 20.132 47.454 20.132C47.99 20.132 48.45 20.084 48.834 19.988C49.218 19.892 49.514 19.752 49.722 19.568C49.93 19.384 50.034 19.16 50.034 18.896C50.034 18.64 49.93 18.424 49.722 18.248C49.514 18.064 49.218 17.924 48.834 17.828C48.45 17.732 47.99 17.684 47.454 17.684ZM49.914 10.076H50.91V16.592H49.914V10.076ZM50.634 12.8H52.506V13.64H50.634V12.8ZM42.93 10.76H43.914V12.392H46.974V10.76H47.958V15.764H42.93V10.76ZM43.914 13.184V14.96H46.974V13.184H43.914ZM53.8251 10.64H54.8211V12.296H57.7491V10.64H58.7331V15.608H53.8251V10.64ZM54.8211 13.088V14.792H57.7491V13.088H54.8211ZM58.4571 12.74H61.5171V13.568H58.4571V12.74ZM61.2291 10.076H62.2251V16.004H61.2291V10.076ZM55.2771 16.532H56.2611V17.84H61.2291V16.532H62.2131V20.78H55.2771V16.532ZM56.2611 18.632V19.964H61.2291V18.632H56.2611Z" fill="#2B2B2B"/>
</svg>
