<svg width="264" height="81" viewBox="0 0 264 81" fill="none" xmlns="http://www.w3.org/2000/svg">
<mask id="path-1-outside-1_493_7392" maskUnits="userSpaceOnUse" x="9.94763" y="42.0459" width="42" height="38" fill="black">
<rect fill="white" x="9.94763" y="42.0459" width="42" height="38"/>
<path d="M35.2876 51.8759C35.2876 50.8026 35.0543 50.1259 34.5876 49.8459C34.121 49.5192 33.421 49.3559 32.4876 49.3559H13.7976C13.1443 49.3559 12.701 49.2392 12.4676 49.0059C12.281 48.7726 12.1876 48.3992 12.1876 47.8859V45.9259C12.1876 45.4126 12.281 45.0392 12.4676 44.8059C12.701 44.5726 13.1443 44.4559 13.7976 44.4559H45.6476C47.141 44.4559 48.1676 44.7592 48.7276 45.3659C49.2876 45.9726 49.5676 46.9759 49.5676 48.3759V73.3659C49.5676 74.7659 49.2876 75.7692 48.7276 76.3759C48.1676 76.9826 47.141 77.2859 45.6476 77.2859H39.2076C37.7143 77.2859 36.6876 76.9826 36.1276 76.3759C35.5676 75.7692 35.2876 74.7659 35.2876 73.3659V51.8759Z"/>
</mask>
<path d="M35.2876 51.8759C35.2876 50.8026 35.0543 50.1259 34.5876 49.8459C34.121 49.5192 33.421 49.3559 32.4876 49.3559H13.7976C13.1443 49.3559 12.701 49.2392 12.4676 49.0059C12.281 48.7726 12.1876 48.3992 12.1876 47.8859V45.9259C12.1876 45.4126 12.281 45.0392 12.4676 44.8059C12.701 44.5726 13.1443 44.4559 13.7976 44.4559H45.6476C47.141 44.4559 48.1676 44.7592 48.7276 45.3659C49.2876 45.9726 49.5676 46.9759 49.5676 48.3759V73.3659C49.5676 74.7659 49.2876 75.7692 48.7276 76.3759C48.1676 76.9826 47.141 77.2859 45.6476 77.2859H39.2076C37.7143 77.2859 36.6876 76.9826 36.1276 76.3759C35.5676 75.7692 35.2876 74.7659 35.2876 73.3659V51.8759Z" fill="#2B2B2B"/>
<path d="M34.5876 49.8459L33.4407 51.4844L33.4983 51.5247L33.5586 51.5609L34.5876 49.8459ZM12.4676 49.0059L10.9059 50.2553L10.9751 50.3418L11.0534 50.4201L12.4676 49.0059ZM12.4676 44.8059L11.0534 43.3917L10.9751 43.47L10.9059 43.5565L12.4676 44.8059ZM48.7276 45.3659L47.258 46.7225L48.7276 45.3659ZM48.7276 76.3759L47.258 75.0193L47.258 75.0193L48.7276 76.3759ZM36.1276 76.3759L34.658 77.7325L34.658 77.7325L36.1276 76.3759ZM35.2876 51.8759H37.2876C37.2876 51.2169 37.2189 50.5365 37.0034 49.9114C36.7823 49.2703 36.3655 48.5803 35.6166 48.1309L34.5876 49.8459L33.5586 51.5609C33.427 51.4819 33.3357 51.3876 33.2798 51.3113C33.2276 51.2399 33.2157 51.1975 33.2219 51.2154C33.2282 51.2336 33.246 51.2936 33.2614 51.4096C33.2767 51.5244 33.2876 51.6778 33.2876 51.8759H35.2876ZM34.5876 49.8459L35.7346 48.2074C34.7786 47.5382 33.593 47.3559 32.4876 47.3559V49.3559V51.3559C32.844 51.3559 33.0937 51.3877 33.2582 51.4261C33.4223 51.4644 33.4632 51.5001 33.4407 51.4844L34.5876 49.8459ZM32.4876 49.3559V47.3559H13.7976V49.3559V51.3559H32.4876V49.3559ZM13.7976 49.3559V47.3559C13.6925 47.3559 13.614 47.3511 13.5586 47.3452C13.5025 47.3393 13.4801 47.3332 13.4841 47.3342C13.4876 47.3352 13.5318 47.3469 13.6009 47.3826C13.6714 47.4191 13.7742 47.4841 13.8819 47.5917L12.4676 49.0059L11.0534 50.4201C11.8922 51.2589 13.0672 51.3559 13.7976 51.3559V49.3559ZM12.4676 49.0059L14.0294 47.7565C14.1596 47.9193 14.1941 48.0507 14.1979 48.0658C14.2005 48.076 14.1975 48.0674 14.1941 48.0353C14.1908 48.0035 14.1876 47.9545 14.1876 47.8859H12.1876H10.1876C10.1876 48.5583 10.2941 49.4906 10.9059 50.2553L12.4676 49.0059ZM12.1876 47.8859H14.1876V45.9259H12.1876H10.1876V47.8859H12.1876ZM12.1876 45.9259H14.1876C14.1876 45.8573 14.1908 45.8083 14.1941 45.7765C14.1975 45.7444 14.2005 45.7358 14.1979 45.746C14.1941 45.7611 14.1596 45.8925 14.0294 46.0553L12.4676 44.8059L10.9059 43.5565C10.2941 44.3212 10.1876 45.2535 10.1876 45.9259H12.1876ZM12.4676 44.8059L13.8818 46.2201C13.7742 46.3277 13.6714 46.3927 13.6009 46.4292C13.5318 46.4649 13.4876 46.4766 13.4841 46.4775C13.4801 46.4786 13.5024 46.4725 13.5586 46.4666C13.614 46.4607 13.6925 46.4559 13.7976 46.4559V44.4559V42.4559C13.0672 42.4559 11.8922 42.5529 11.0534 43.3917L12.4676 44.8059ZM13.7976 44.4559V46.4559H45.6476V44.4559V42.4559H13.7976V44.4559ZM45.6476 44.4559V46.4559C46.272 46.4559 46.6981 46.5208 46.9709 46.6014C47.2387 46.6805 47.2853 46.752 47.258 46.7225L48.7276 45.3659L50.1972 44.0093C49.0471 42.7633 47.2828 42.4559 45.6476 42.4559V44.4559ZM48.7276 45.3659L47.258 46.7225C47.3071 46.7756 47.5676 47.1542 47.5676 48.3759H49.5676H51.5676C51.5676 46.7976 51.2681 45.1695 50.1972 44.0093L48.7276 45.3659ZM49.5676 48.3759H47.5676V73.3659H49.5676H51.5676V48.3759H49.5676ZM49.5676 73.3659H47.5676C47.5676 74.5876 47.3071 74.9661 47.258 75.0193L48.7276 76.3759L50.1972 77.7325C51.2681 76.5723 51.5676 74.9442 51.5676 73.3659H49.5676ZM48.7276 76.3759L47.258 75.0193C47.2853 74.9898 47.2387 75.0613 46.9709 75.1404C46.6981 75.221 46.272 75.2859 45.6476 75.2859V77.2859V79.2859C47.2828 79.2859 49.0471 78.9785 50.1972 77.7325L48.7276 76.3759ZM45.6476 77.2859V75.2859H39.2076V77.2859V79.2859H45.6476V77.2859ZM39.2076 77.2859V75.2859C38.5833 75.2859 38.1571 75.221 37.8843 75.1404C37.6166 75.0613 37.57 74.9898 37.5972 75.0193L36.1276 76.3759L34.658 77.7325C35.8082 78.9785 37.5724 79.2859 39.2076 79.2859V77.2859ZM36.1276 76.3759L37.5972 75.0193C37.5481 74.9662 37.2876 74.5876 37.2876 73.3659H35.2876H33.2876C33.2876 74.9442 33.5871 76.5723 34.658 77.7325L36.1276 76.3759ZM35.2876 73.3659H37.2876V51.8759H35.2876H33.2876V73.3659H35.2876Z" fill="#2B2B2B" mask="url(#path-1-outside-1_493_7392)"/>
<mask id="path-3-outside-2_493_7392" maskUnits="userSpaceOnUse" x="71.3786" y="22.5475" width="43.5461" height="36.4346" fill="black">
<rect fill="white" x="71.3786" y="22.5475" width="43.5461" height="36.4346"/>
<path d="M75.139 31.8125C74.8925 30.6381 74.9544 29.7696 75.3246 29.207C75.6947 28.6444 76.5158 28.2915 77.7878 28.1484L83.2731 27.531C84.5451 27.3878 85.473 27.5438 86.0568 27.9991C86.6406 28.4543 87.0557 29.2691 87.3022 30.4435L90.6297 46.2981C90.8187 47.1985 91.1489 47.8025 91.6203 48.1101C92.0917 48.4177 92.8442 48.5133 93.8777 48.397C95.0304 48.2672 96.238 48.0111 97.5004 47.6286C98.7943 47.2024 100.052 46.7003 101.273 46.122C102.495 45.5437 103.604 44.918 104.602 44.2446C105.64 43.5668 106.499 42.9092 107.179 42.2716C107.622 41.8611 107.966 41.6621 108.213 41.6744C108.499 41.6822 108.795 41.8293 109.099 42.1156L110.084 43.0266C110.596 43.5299 110.643 44.0456 110.225 44.5735C109.08 45.9045 107.705 47.2014 106.098 48.4641C104.483 49.6878 102.725 50.8074 100.822 51.8229C98.9508 52.7949 96.9914 53.6365 94.9435 54.3479C92.9272 55.0156 90.9054 55.4636 88.8782 55.6917C86.0958 56.0049 83.8419 55.6375 82.1165 54.5894C80.4226 53.4978 79.3251 51.758 78.8239 49.37L75.139 31.8125Z"/>
</mask>
<path d="M75.139 31.8125C74.8925 30.6381 74.9544 29.7696 75.3246 29.207C75.6947 28.6444 76.5158 28.2915 77.7878 28.1484L83.2731 27.531C84.5451 27.3878 85.473 27.5438 86.0568 27.9991C86.6406 28.4543 87.0557 29.2691 87.3022 30.4435L90.6297 46.2981C90.8187 47.1985 91.1489 47.8025 91.6203 48.1101C92.0917 48.4177 92.8442 48.5133 93.8777 48.397C95.0304 48.2672 96.238 48.0111 97.5004 47.6286C98.7943 47.2024 100.052 46.7003 101.273 46.122C102.495 45.5437 103.604 44.918 104.602 44.2446C105.64 43.5668 106.499 42.9092 107.179 42.2716C107.622 41.8611 107.966 41.6621 108.213 41.6744C108.499 41.6822 108.795 41.8293 109.099 42.1156L110.084 43.0266C110.596 43.5299 110.643 44.0456 110.225 44.5735C109.08 45.9045 107.705 47.2014 106.098 48.4641C104.483 49.6878 102.725 50.8074 100.822 51.8229C98.9508 52.7949 96.9914 53.6365 94.9435 54.3479C92.9272 55.0156 90.9054 55.4636 88.8782 55.6917C86.0958 56.0049 83.8419 55.6375 82.1165 54.5894C80.4226 53.4978 79.3251 51.758 78.8239 49.37L75.139 31.8125Z" fill="#2B2B2B"/>
<path d="M75.3246 29.207L77.0636 30.3703L77.0636 30.3703L75.3246 29.207ZM86.0568 27.9991L87.2385 26.5071L87.2385 26.5071L86.0568 27.9991ZM97.5004 47.6286L98.2601 49.5144L98.2819 49.5077L98.3035 49.5006L97.5004 47.6286ZM101.273 46.122L100.255 44.3358L101.273 46.122ZM104.602 44.2446L103.368 42.5792L103.357 42.5865L103.346 42.594L104.602 44.2446ZM107.179 42.2716L105.71 40.7896L105.702 40.7964L107.179 42.2716ZM108.213 41.6744L108.291 43.6419L108.315 43.643L108.339 43.6437L108.213 41.6744ZM109.099 42.1156L107.756 43.469L107.763 43.4757L107.77 43.4823L109.099 42.1156ZM110.084 43.0266L111.462 41.7069L111.438 41.6831L111.413 41.6599L110.084 43.0266ZM110.225 44.5735L111.831 45.9141L111.853 45.8875L111.875 45.86L110.225 44.5735ZM106.098 48.4641L107.434 50.0581L107.446 50.0486L107.458 50.039L106.098 48.4641ZM100.822 51.8229L101.901 53.579L101.91 53.5743L101.919 53.5695L100.822 51.8229ZM94.9435 54.3479L95.7496 56.2189L95.7627 56.2146L95.7757 56.2101L94.9435 54.3479ZM82.1165 54.5894L81.1031 56.201L81.1288 56.2176L81.155 56.2334L82.1165 54.5894ZM75.139 31.8125L77.1265 31.5888C77.0286 31.1226 77.0104 30.7998 77.0253 30.591C77.0398 30.3864 77.082 30.3422 77.0636 30.3703L75.3246 29.207L73.5855 28.0437C72.8213 29.2051 72.8684 30.6873 73.1516 32.0362L75.139 31.8125ZM75.3246 29.207L77.0636 30.3703C77.0117 30.4491 76.9937 30.4121 77.1751 30.3341C77.3612 30.2541 77.6841 30.1636 78.1986 30.1057L77.7878 28.1483L77.377 26.191C75.964 26.35 74.4109 26.7894 73.5855 28.0437L75.3246 29.207ZM77.7878 28.1483L78.1986 30.1057L83.6839 29.4883L83.2731 27.531L82.8623 25.5736L77.377 26.191L77.7878 28.1483ZM83.2731 27.531L83.6839 29.4883C84.1984 29.4304 84.5435 29.4458 84.7539 29.4811C84.9588 29.5156 84.9569 29.5549 84.875 29.4911L86.0568 27.9991L87.2385 26.5071C85.937 25.4921 84.2753 25.4146 82.8623 25.5736L83.2731 27.531ZM86.0568 27.9991L84.875 29.4911C84.846 29.4684 84.9043 29.5012 85.0021 29.6932C85.1019 29.8891 85.2169 30.201 85.3148 30.6672L87.3022 30.4435L89.2897 30.2198C89.0066 28.8709 88.4437 27.4468 87.2385 26.5071L86.0568 27.9991ZM87.3022 30.4435L85.3148 30.6672L88.6422 46.5218L90.6297 46.2981L92.6171 46.0744L89.2897 30.2198L87.3022 30.4435ZM90.6297 46.2981L88.6422 46.5218C88.8691 47.6029 89.3704 48.9149 90.5961 49.7146L91.6203 48.1101L92.6445 46.5055C92.7919 46.6017 92.825 46.6866 92.7935 46.6291C92.7573 46.5629 92.6844 46.3948 92.6171 46.0744L90.6297 46.2981ZM91.6203 48.1101L90.5961 49.7146C91.7555 50.471 93.1623 50.4811 94.2885 50.3543L93.8777 48.397L93.4669 46.4396C93.0531 46.4862 92.7808 46.4795 92.6217 46.4593C92.4577 46.4385 92.5061 46.4152 92.6445 46.5055L91.6203 48.1101ZM93.8777 48.397L94.2885 50.3543C95.5772 50.2093 96.9018 49.9259 98.2601 49.5144L97.5004 47.6286L96.7407 45.7428C95.5741 46.0963 94.4836 46.3252 93.4669 46.4396L93.8777 48.397ZM97.5004 47.6286L98.3035 49.5006C99.6714 49.0501 101.001 48.5193 102.292 47.9082L101.273 46.122L100.255 44.3358C99.1031 44.8812 97.9173 45.3548 96.6972 45.7565L97.5004 47.6286ZM101.273 46.122L102.292 47.9082C103.587 47.2949 104.777 46.6248 105.859 45.8953L104.602 44.2446L103.346 42.594C102.431 43.2112 101.402 43.7926 100.255 44.3358L101.273 46.122ZM104.602 44.2446L105.836 45.9101C106.935 45.1925 107.881 44.4726 108.655 43.7469L107.179 42.2716L105.702 40.7964C105.117 41.3458 104.345 41.9412 103.368 42.5792L104.602 44.2446ZM107.179 42.2716L108.648 43.7536C108.728 43.6791 108.793 43.6246 108.842 43.5863C108.867 43.5674 108.886 43.5538 108.899 43.5445C108.913 43.5351 108.92 43.5314 108.919 43.5316C108.919 43.5318 108.909 43.5376 108.889 43.5466C108.87 43.5555 108.837 43.5694 108.791 43.584C108.704 43.6112 108.531 43.6538 108.291 43.6419L108.213 41.6744L108.135 39.7069C107.445 39.6725 106.913 39.9277 106.62 40.0973C106.288 40.2889 105.982 40.5368 105.71 40.7896L107.179 42.2716ZM108.213 41.6744L108.339 43.6437C107.898 43.6316 107.686 43.4033 107.756 43.469L109.099 42.1156L110.442 40.7622C109.904 40.2552 109.101 39.7327 108.087 39.705L108.213 41.6744ZM109.099 42.1156L107.77 43.4823L108.754 44.3933L110.084 43.0266L111.413 41.6599L110.428 40.7489L109.099 42.1156ZM110.084 43.0266L108.705 44.3463C108.711 44.3522 108.516 44.1563 108.482 43.7887C108.449 43.4313 108.602 43.2537 108.575 43.2869L110.225 44.5735L111.875 45.86C112.267 45.3654 112.605 44.666 112.525 43.793C112.444 42.9097 111.969 42.2044 111.462 41.7069L110.084 43.0266ZM110.225 44.5735L108.62 43.2329C107.559 44.4662 106.269 45.6861 104.738 46.8893L106.098 48.4641L107.458 50.039C109.141 48.7166 110.602 47.3428 111.831 45.9141L110.225 44.5735ZM106.098 48.4641L104.763 46.8702C103.227 48.034 101.548 49.1031 99.7251 50.0763L100.822 51.8229L101.919 53.5695C103.901 52.5116 105.74 51.3415 107.434 50.0581L106.098 48.4641ZM100.822 51.8229L99.7432 50.0668C97.9524 50.997 96.0755 51.8034 94.1114 52.4857L94.9435 54.3479L95.7757 56.2101C97.9073 55.4697 99.9493 54.5927 101.901 53.579L100.822 51.8229ZM94.9435 54.3479L94.1374 52.4768C92.2405 53.105 90.3509 53.5224 88.4674 53.7344L88.8782 55.6917L89.289 57.6491C91.4599 57.4047 93.6139 56.9262 95.7496 56.2189L94.9435 54.3479ZM88.8782 55.6917L88.4674 53.7344C85.9466 54.0181 84.2302 53.6453 83.078 52.9454L82.1165 54.5894L81.155 56.2334C83.4536 57.6296 86.245 57.9917 89.289 57.6491L88.8782 55.6917ZM82.1165 54.5894L83.1298 52.9779C82.0657 52.2921 81.2287 51.1349 80.8113 49.1463L78.8239 49.37L76.8364 49.5937C77.4214 52.3811 78.7795 54.7035 81.1031 56.201L82.1165 54.5894ZM78.8239 49.37L80.8113 49.1463L77.1265 31.5888L75.139 31.8125L73.1516 32.0362L76.8364 49.5937L78.8239 49.37Z" fill="#2B2B2B" mask="url(#path-3-outside-2_493_7392)"/>
<mask id="path-5-outside-3_493_7392" maskUnits="userSpaceOnUse" x="139.324" y="32.5378" width="38.8943" height="34.0957" fill="black">
<rect fill="white" x="139.324" y="32.5378" width="38.8943" height="34.0957"/>
<path d="M154.242 54.6854C154.189 55.6038 154.352 56.249 154.73 56.6208C155.109 56.9926 155.819 57.1947 156.858 57.2271C162.096 57.3901 166.939 56.4007 171.389 54.259C171.968 53.9569 172.376 53.8296 172.613 53.877C172.853 53.8845 173.084 54.0517 173.305 54.3786L174.025 55.4212C174.211 55.667 174.275 55.949 174.217 56.2672C174.2 56.5468 174.047 56.782 173.755 56.973C172.049 58.08 170.229 59.0635 168.297 59.9234C166.404 60.7846 164.439 61.5236 162.401 62.1402C160.365 62.7169 158.297 63.1526 156.197 63.4473C154.139 63.7033 152.091 63.7995 150.052 63.7361C147.253 63.6489 145.15 62.9634 143.743 61.6794C142.378 60.3568 141.766 58.4775 141.907 56.0416L142.912 38.7308C142.984 37.4928 143.273 36.6417 143.781 36.1775C144.291 35.6733 145.166 35.4405 146.405 35.4791L170.933 36.2426C171.453 36.2587 171.807 36.3698 171.995 36.5757C172.186 36.7416 172.267 37.0642 172.239 37.5434L172.142 39.2206C172.114 39.6997 171.995 40.0361 171.783 40.2295C171.574 40.383 171.209 40.4517 170.69 40.4355L156.896 40.0062C156.217 39.985 155.729 40.1098 155.433 40.3807C155.179 40.6128 155.031 41.0882 154.99 41.807L154.242 54.6854Z"/>
</mask>
<path d="M154.242 54.6854C154.189 55.6038 154.352 56.249 154.73 56.6208C155.109 56.9926 155.819 57.1947 156.858 57.2271C162.096 57.3901 166.939 56.4007 171.389 54.259C171.968 53.9569 172.376 53.8296 172.613 53.877C172.853 53.8845 173.084 54.0517 173.305 54.3786L174.025 55.4212C174.211 55.667 174.275 55.949 174.217 56.2672C174.2 56.5468 174.047 56.782 173.755 56.973C172.049 58.08 170.229 59.0635 168.297 59.9234C166.404 60.7846 164.439 61.5236 162.401 62.1402C160.365 62.7169 158.297 63.1526 156.197 63.4473C154.139 63.7033 152.091 63.7995 150.052 63.7361C147.253 63.6489 145.15 62.9634 143.743 61.6794C142.378 60.3568 141.766 58.4775 141.907 56.0416L142.912 38.7308C142.984 37.4928 143.273 36.6417 143.781 36.1775C144.291 35.6733 145.166 35.4405 146.405 35.4791L170.933 36.2426C171.453 36.2587 171.807 36.3698 171.995 36.5757C172.186 36.7416 172.267 37.0642 172.239 37.5434L172.142 39.2206C172.114 39.6997 171.995 40.0361 171.783 40.2295C171.574 40.383 171.209 40.4517 170.69 40.4355L156.896 40.0062C156.217 39.985 155.729 40.1098 155.433 40.3807C155.179 40.6128 155.031 41.0882 154.99 41.807L154.242 54.6854Z" fill="#2B2B2B"/>
<path d="M154.73 56.6208L156.154 55.1783L156.154 55.1783L154.73 56.6208ZM171.389 54.259L172.22 56.0538L172.25 56.0391L172.281 56.0234L171.389 54.259ZM172.613 53.877L172.17 55.8363L172.332 55.8685L172.497 55.8737L172.613 53.877ZM173.305 54.3786L171.636 55.5268L171.641 55.5345L171.647 55.5421L173.305 54.3786ZM174.025 55.4212L172.367 56.5846L172.391 56.6186L172.416 56.6516L174.025 55.4212ZM174.217 56.2672L172.247 55.9578L172.225 56.0807L172.218 56.205L174.217 56.2672ZM173.755 56.9729L174.815 58.639L174.823 58.6338L173.755 56.9729ZM168.297 59.9234L167.522 58.1027L167.514 58.1062L167.507 58.1098L168.297 59.9234ZM162.401 62.1402L162.9 64.0608L162.917 64.0559L162.934 64.0506L162.401 62.1402ZM156.197 63.4473L156.392 65.4294L156.408 65.4275L156.423 65.4253L156.197 63.4473ZM143.743 61.6794L142.328 63.1304L142.349 63.1505L142.37 63.1699L143.743 61.6794ZM143.781 36.1775L145.113 37.6333L145.143 37.606L145.171 37.5775L143.781 36.1775ZM171.995 36.5757L170.5 37.9435L170.573 38.0241L170.656 38.0959L171.995 36.5757ZM171.783 40.2295L172.941 41.8275L173.032 41.7611L173.115 41.6853L171.783 40.2295ZM155.433 40.3807L156.764 41.8365L156.764 41.8365L155.433 40.3807ZM154.242 54.6854L152.243 54.6231C152.179 55.7259 152.322 57.0965 153.307 58.0633L154.73 56.6208L156.154 55.1783C156.272 55.2946 156.282 55.3834 156.267 55.3219C156.249 55.2512 156.222 55.0743 156.241 54.7476L154.242 54.6854ZM154.73 56.6208L153.307 58.0633C154.239 58.9777 155.609 59.1885 156.742 59.2237L156.858 57.2271L156.974 55.2305C156.558 55.2175 156.294 55.172 156.144 55.1293C155.989 55.0853 156.043 55.0692 156.154 55.1783L154.73 56.6208ZM156.858 57.2271L156.742 59.2237C162.281 59.3961 167.452 58.3485 172.22 56.0538L171.389 54.259L170.559 52.4641C166.427 54.453 161.911 55.3841 156.974 55.2305L156.858 57.2271ZM171.389 54.259L172.281 56.0234C172.391 55.966 172.48 55.9234 172.55 55.8927C172.622 55.8615 172.664 55.8471 172.68 55.8421C172.699 55.8362 172.667 55.8478 172.597 55.8565C172.56 55.8611 172.505 55.8658 172.436 55.8649C172.367 55.864 172.276 55.8574 172.17 55.8363L172.613 53.877L173.056 51.9178C172.448 51.7965 171.898 51.9321 171.578 52.0319C171.213 52.1457 170.846 52.3127 170.498 52.4945L171.389 54.259ZM172.613 53.877L172.497 55.8737C172.149 55.8628 171.896 55.7332 171.761 55.6348C171.64 55.547 171.606 55.4824 171.636 55.5268L173.305 54.3786L174.974 53.2304C174.634 52.7289 173.922 51.9175 172.729 51.8804L172.613 53.877ZM173.305 54.3786L171.647 55.5421L172.367 56.5846L174.025 55.4212L175.684 54.2577L174.963 53.2152L173.305 54.3786ZM174.025 55.4212L172.416 56.6516C172.355 56.5715 172.292 56.4538 172.259 56.3057C172.226 56.1592 172.233 56.0358 172.247 55.9578L174.217 56.2672L176.186 56.5766C176.341 55.7318 176.163 54.888 175.635 54.1908L174.025 55.4212ZM174.217 56.2672L172.218 56.205C172.23 55.9941 172.3 55.7781 172.421 55.5935C172.533 55.4219 172.649 55.3371 172.688 55.312L173.755 56.9729L174.823 58.6338C175.52 58.1768 176.153 57.4037 176.216 56.3295L174.217 56.2672ZM173.755 56.9729L172.695 55.3069C171.084 56.3525 169.36 57.2849 167.522 58.1027L168.297 59.9234L169.072 61.7442C171.099 60.8421 173.014 59.8074 174.815 58.639L173.755 56.9729ZM168.297 59.9234L167.507 58.1098C165.7 58.932 163.82 59.6389 161.867 60.2298L162.401 62.1402L162.934 64.0506C165.058 63.4082 167.109 62.6373 169.087 61.7371L168.297 59.9234ZM162.401 62.1402L161.902 60.2196C159.956 60.7708 157.979 61.1874 155.97 61.4693L156.197 63.4473L156.423 65.4253C158.615 65.1178 160.773 64.663 162.9 64.0608L162.401 62.1402ZM156.197 63.4473L156.001 61.4651C154.046 61.7084 152.102 61.7996 150.168 61.7394L150.052 63.7361L149.936 65.7327C152.08 65.7994 154.232 65.6981 156.392 65.4294L156.197 63.4473ZM150.052 63.7361L150.168 61.7394C147.632 61.6605 146.055 61.0463 145.115 60.1889L143.743 61.6794L142.37 63.1699C144.245 64.8805 146.874 65.6374 149.936 65.7327L150.052 63.7361ZM143.743 61.6794L145.157 60.2285C144.3 59.3976 143.788 58.1323 143.906 56.1038L141.907 56.0416L139.908 55.9794C139.743 58.8227 140.455 61.316 142.328 63.1304L143.743 61.6794ZM141.907 56.0416L143.906 56.1038L144.911 38.793L142.912 38.7308L140.913 38.6685L139.908 55.9794L141.907 56.0416ZM142.912 38.7308L144.911 38.793C144.94 38.2907 145.009 37.9605 145.077 37.7606C145.145 37.5628 145.185 37.5674 145.113 37.6333L143.781 36.1775L142.449 34.7217C141.324 35.7515 140.992 37.2981 140.913 38.6685L142.912 38.7308ZM143.781 36.1775L145.171 37.5775C145.109 37.6394 145.105 37.6025 145.287 37.554C145.476 37.5035 145.797 37.4604 146.289 37.4757L146.405 35.4791L146.521 33.4824C145.116 33.4387 143.518 33.6627 142.391 34.7775L143.781 36.1775ZM146.405 35.4791L146.289 37.4757L170.817 38.2392L170.933 36.2426L171.049 34.2459L146.521 33.4824L146.405 35.4791ZM170.933 36.2426L170.817 38.2392C170.961 38.2437 170.988 38.2597 170.942 38.2451C170.894 38.23 170.697 38.1595 170.5 37.9435L171.995 36.5757L173.491 35.2078C172.75 34.3982 171.697 34.2661 171.049 34.2459L170.933 36.2426ZM171.995 36.5757L170.656 38.0959C170.376 37.8519 170.283 37.5833 170.257 37.4782C170.232 37.3808 170.247 37.3641 170.24 37.4812L172.239 37.5434L174.238 37.6056C174.273 37.0117 174.248 35.8504 173.334 35.0554L171.995 36.5757ZM172.239 37.5434L170.24 37.4812L170.143 39.1583L172.142 39.2206L174.141 39.2828L174.238 37.6056L172.239 37.5434ZM172.142 39.2206L170.143 39.1583C170.137 39.2699 170.123 39.2735 170.146 39.2091C170.171 39.1387 170.251 38.9567 170.452 38.7737L171.783 40.2295L173.115 41.6853C173.923 40.9461 174.103 39.9453 174.141 39.2828L172.142 39.2206ZM171.783 40.2295L170.625 38.6315C170.744 38.5438 170.849 38.4949 170.916 38.469C170.983 38.4432 171.025 38.4349 171.032 38.4335C171.04 38.4321 171.026 38.4352 170.985 38.4377C170.944 38.4401 170.885 38.4413 170.806 38.4389L170.69 40.4355L170.574 42.4321C171.156 42.4503 172.134 42.4198 172.941 41.8275L171.783 40.2295ZM170.69 40.4355L170.806 38.4389L157.012 38.0095L156.896 40.0062L156.781 42.0028L170.574 42.4321L170.69 40.4355ZM156.896 40.0062L157.012 38.0095C156.157 37.9829 154.998 38.1049 154.101 38.9248L155.433 40.3807L156.764 41.8365C156.686 41.9086 156.611 41.9548 156.556 41.9825C156.503 42.0095 156.47 42.0179 156.469 42.0181C156.469 42.0183 156.493 42.0122 156.547 42.0074C156.601 42.0026 156.678 41.9996 156.781 42.0028L156.896 40.0062ZM155.433 40.3807L154.101 38.9248C153.607 39.3772 153.356 39.9304 153.22 40.3667C153.081 40.815 153.017 41.289 152.99 41.7448L154.989 41.807L156.989 41.8693C156.996 41.7436 157.007 41.6465 157.018 41.5742C157.03 41.5009 157.04 41.4642 157.043 41.456C157.046 41.4467 157.035 41.4839 156.998 41.549C156.961 41.6153 156.888 41.7231 156.764 41.8365L155.433 40.3807ZM154.989 41.807L152.99 41.7448L152.243 54.6231L154.242 54.6854L156.241 54.7476L156.989 41.8693L154.989 41.807Z" fill="#2B2B2B" mask="url(#path-5-outside-3_493_7392)"/>
<mask id="path-7-outside-4_493_7392" maskUnits="userSpaceOnUse" x="207.472" y="29.5485" width="40.344" height="35.3406" fill="black">
<rect fill="white" x="207.472" y="29.5485" width="40.344" height="35.3406"/>
<path d="M225.606 48.0754C224.926 48.1008 224.456 48.2585 224.196 48.5483C223.973 48.7967 223.887 49.28 223.937 49.9982L224.125 52.6917C224.189 53.6094 224.434 54.2404 224.858 54.5845C225.283 54.9287 226.015 55.0813 227.055 55.0423C228.374 54.9929 229.75 54.9013 231.183 54.7675C232.614 54.5939 234.003 54.4018 235.351 54.1912C236.736 53.9393 238.04 53.6704 239.262 53.3845C240.485 53.0987 241.506 52.8003 242.326 52.4896C242.871 52.2691 243.266 52.1743 243.508 52.2052C243.791 52.2346 244.045 52.4251 244.269 52.7768L244.82 53.7763C244.96 54.0511 245.039 54.3282 245.059 54.6075C245.115 54.8454 244.991 55.0701 244.685 55.2816C242.013 57.1821 238.654 58.7283 234.609 59.9201C230.605 61.1104 226.104 61.7991 221.108 61.9864C218.31 62.0913 216.128 61.553 214.562 60.3714C213.034 59.1485 212.185 57.32 212.015 54.8859L211.517 47.7633C211.433 46.5662 211.613 45.6993 212.057 45.1626C212.5 44.6259 213.361 44.3336 214.64 44.2856L228.85 43.753C229.53 43.7275 229.981 43.5906 230.204 43.3422C230.465 43.0524 230.57 42.5483 230.52 41.8301L230.277 38.3586C230.227 37.6403 230.053 37.1667 229.757 36.9378C229.497 36.6675 229.028 36.545 228.348 36.5705L212.759 37.1548C212.24 37.1743 211.874 37.108 211.663 36.9559C211.45 36.7638 211.326 36.4284 211.293 35.9496L211.175 34.2737C211.142 33.7948 211.22 33.4719 211.408 33.3048C211.594 33.0978 211.947 32.9845 212.467 32.965L238.788 31.9784C240.027 31.932 240.905 32.1592 241.421 32.6599C241.934 33.1208 242.234 33.9697 242.32 35.2067L242.939 44.065C243.026 45.302 242.847 46.1889 242.404 46.7256C241.958 47.2224 241.115 47.494 239.876 47.5405L225.606 48.0754Z"/>
</mask>
<path d="M225.606 48.0754C224.926 48.1008 224.456 48.2585 224.196 48.5483C223.973 48.7967 223.887 49.28 223.937 49.9982L224.125 52.6917C224.189 53.6094 224.434 54.2404 224.858 54.5845C225.283 54.9287 226.015 55.0813 227.055 55.0423C228.374 54.9929 229.75 54.9013 231.183 54.7675C232.614 54.5939 234.003 54.4018 235.351 54.1912C236.736 53.9393 238.04 53.6704 239.262 53.3845C240.485 53.0987 241.506 52.8003 242.326 52.4896C242.871 52.2691 243.266 52.1743 243.508 52.2052C243.791 52.2346 244.045 52.4251 244.269 52.7768L244.82 53.7763C244.96 54.0511 245.039 54.3282 245.059 54.6075C245.115 54.8454 244.991 55.0701 244.685 55.2816C242.013 57.1821 238.654 58.7283 234.609 59.9201C230.605 61.1104 226.104 61.7991 221.108 61.9864C218.31 62.0913 216.128 61.553 214.562 60.3714C213.034 59.1485 212.185 57.32 212.015 54.8859L211.517 47.7633C211.433 46.5662 211.613 45.6993 212.057 45.1626C212.5 44.6259 213.361 44.3336 214.64 44.2856L228.85 43.753C229.53 43.7275 229.981 43.5906 230.204 43.3422C230.465 43.0524 230.57 42.5483 230.52 41.8301L230.277 38.3586C230.227 37.6403 230.053 37.1667 229.757 36.9378C229.497 36.6675 229.028 36.545 228.348 36.5705L212.759 37.1548C212.24 37.1743 211.874 37.108 211.663 36.9559C211.45 36.7638 211.326 36.4284 211.293 35.9496L211.175 34.2737C211.142 33.7948 211.22 33.4719 211.408 33.3048C211.594 33.0978 211.947 32.9845 212.467 32.965L238.788 31.9784C240.027 31.932 240.905 32.1592 241.421 32.6599C241.934 33.1208 242.234 33.9697 242.32 35.2067L242.939 44.065C243.026 45.302 242.847 46.1889 242.404 46.7256C241.958 47.2224 241.115 47.494 239.876 47.5405L225.606 48.0754Z" fill="#2B2B2B"/>
<path d="M231.183 54.7675L231.433 56.7554L231.461 56.7529L231.488 56.7496L231.183 54.7675ZM235.351 54.1912L235.723 56.164L235.748 56.1601L235.772 56.1557L235.351 54.1912ZM242.326 52.4896L243.09 54.3586L243.11 54.3511L243.129 54.3433L242.326 52.4896ZM243.508 52.2052L243.317 54.1855L243.34 54.1884L243.364 54.1909L243.508 52.2052ZM244.269 52.7768L246.018 51.8595L245.986 51.7998L245.949 51.7424L244.269 52.7768ZM244.82 53.7763L246.602 52.9215L246.586 52.89L246.569 52.859L244.82 53.7763ZM245.059 54.6075L243.06 54.6824L243.072 54.8475L243.11 55.0094L245.059 54.6075ZM244.685 55.2816L243.508 53.6295L243.497 53.6366L243.487 53.6439L244.685 55.2816ZM234.609 59.9201L233.985 58.0039L233.981 58.0053L234.609 59.9201ZM214.562 60.3714L213.339 61.9124L213.362 61.9309L213.386 61.9488L214.562 60.3714ZM212.057 45.1626L213.62 46.4608L213.62 46.4608L212.057 45.1626ZM230.204 43.3422L228.693 41.9844L228.693 41.9844L230.204 43.3422ZM229.757 36.9378L228.33 38.2931L228.438 38.4059L228.562 38.5014L229.757 36.9378ZM211.663 36.9559L210.349 38.4196L210.433 38.4948L210.524 38.5606L211.663 36.9559ZM211.408 33.3048L212.766 34.8159L212.847 34.7436L212.92 34.6626L211.408 33.3048ZM241.421 32.6599L240.047 34.0682L240.076 34.0965L240.106 34.1236L241.421 32.6599ZM242.404 46.7256L243.916 48.0834L243.942 48.0541L243.967 48.0238L242.404 46.7256ZM225.606 48.0754L225.466 46.0802C224.612 46.1123 223.472 46.3131 222.684 47.1905L224.196 48.5483L225.708 49.9061C225.639 49.9832 225.571 50.0343 225.519 50.0657C225.47 50.0962 225.438 50.1068 225.437 50.107C225.437 50.1072 225.46 50.0996 225.513 50.091C225.567 50.0825 225.643 50.0743 225.745 50.0705L225.606 48.0754ZM224.196 48.5483L222.684 47.1905C222.249 47.6746 222.071 48.2423 221.991 48.6859C221.91 49.1416 221.906 49.6177 221.938 50.0732L223.937 49.9982L225.935 49.9233C225.927 49.7978 225.925 49.7004 225.927 49.6276C225.93 49.5539 225.935 49.5166 225.937 49.5083C225.938 49.4989 225.933 49.5366 225.904 49.6039C225.875 49.6725 225.817 49.7847 225.708 49.9061L224.196 48.5483ZM223.937 49.9982L221.938 50.0732L222.126 52.7666L224.125 52.6917L226.124 52.6168L225.935 49.9233L223.937 49.9982ZM224.125 52.6917L222.126 52.7666C222.203 53.8686 222.521 55.2229 223.625 56.1176L224.858 54.5845L226.092 53.0514C226.225 53.159 226.246 53.2467 226.223 53.1866C226.196 53.1175 226.146 52.9433 226.124 52.6168L224.125 52.6917ZM224.858 54.5845L223.625 56.1176C224.67 56.9639 226.062 57.0799 227.194 57.0374L227.055 55.0423L226.915 53.0472C226.499 53.0628 226.23 53.0356 226.076 53.0034C225.916 52.9701 225.967 52.9504 226.092 53.0514L224.858 54.5845ZM227.055 55.0423L227.194 57.0374C228.553 56.9865 229.967 56.8923 231.433 56.7554L231.183 54.7675L230.933 52.7796C229.533 52.9103 228.194 52.9992 226.915 53.0472L227.055 55.0423ZM231.183 54.7675L231.488 56.7496C232.94 56.5733 234.352 56.3782 235.723 56.164L235.351 54.1912L234.979 52.2185C233.655 52.4254 232.288 52.6144 230.878 52.7855L231.183 54.7675ZM235.351 54.1912L235.772 56.1557C237.185 55.8986 238.521 55.6232 239.779 55.3291L239.262 53.3845L238.746 51.44C237.559 51.7176 236.287 51.98 234.93 52.2268L235.351 54.1912ZM239.262 53.3845L239.779 55.3291C241.053 55.0311 242.164 54.7098 243.09 54.3586L242.326 52.4896L241.561 50.6205C240.848 50.8909 239.916 51.1663 238.746 51.44L239.262 53.3845ZM242.326 52.4896L243.129 54.3433C243.236 54.3001 243.326 54.267 243.4 54.2421C243.475 54.217 243.527 54.2025 243.559 54.1948C243.593 54.1867 243.592 54.1891 243.562 54.1921C243.535 54.1948 243.447 54.202 243.317 54.1855L243.508 52.2052L243.699 50.2249C243.227 50.1647 242.797 50.2405 242.502 50.3114C242.179 50.389 241.848 50.5043 241.522 50.6358L242.326 52.4896ZM243.508 52.2052L243.364 54.1909C243.096 54.163 242.88 54.0573 242.738 53.9508C242.612 53.8562 242.572 53.7826 242.59 53.8112L244.269 52.7768L245.949 51.7424C245.545 51.1115 244.808 50.3398 243.653 50.2195L243.508 52.2052ZM244.269 52.7768L242.521 53.6941L243.071 54.6936L244.82 53.7763L246.569 52.859L246.018 51.8595L244.269 52.7768ZM244.82 53.7763L243.038 54.6311C243.052 54.6592 243.058 54.6758 243.059 54.6815C243.061 54.6869 243.06 54.6864 243.06 54.6824L245.059 54.6075L247.057 54.5326C247.017 53.9601 246.855 53.419 246.602 52.9215L244.82 53.7763ZM245.059 54.6075L243.11 55.0094C243.015 54.6094 243.092 54.2262 243.247 53.9465C243.314 53.8247 243.385 53.7435 243.43 53.6977C243.475 53.6519 243.506 53.6307 243.508 53.6295L244.685 55.2816L245.863 56.9338C246.413 56.5533 247.347 55.6334 247.007 54.2056L245.059 54.6075ZM244.685 55.2816L243.487 53.6439C241.029 55.392 237.878 56.8569 233.985 58.004L234.609 59.9201L235.234 61.8362C239.43 60.5996 242.996 58.9723 245.883 56.9194L244.685 55.2816ZM234.609 59.9201L233.981 58.0053C230.161 59.1406 225.828 59.8091 220.968 59.9913L221.108 61.9864L221.247 63.9816C226.38 63.7892 231.049 63.0801 235.238 61.8349L234.609 59.9201ZM221.108 61.9864L220.968 59.9913C218.433 60.0863 216.784 59.583 215.739 58.794L214.562 60.3714L213.386 61.9488C215.471 63.5229 218.186 64.0963 221.247 63.9816L221.108 61.9864ZM214.562 60.3714L215.786 58.8305C214.826 58.0622 214.155 56.8379 214.014 54.811L212.015 54.8859L210.016 54.9608C210.215 57.802 211.242 60.2347 213.339 61.9124L214.562 60.3714ZM212.015 54.8859L214.014 54.811L213.516 47.6884L211.517 47.7633L209.519 47.8382L210.016 54.9608L212.015 54.8859ZM211.517 47.7633L213.516 47.6884C213.482 47.2132 213.509 46.8878 213.552 46.6794C213.594 46.4752 213.642 46.4341 213.62 46.4608L212.057 45.1626L210.494 43.8644C209.578 44.9724 209.422 46.4632 209.519 47.8382L211.517 47.7633ZM212.057 45.1626L213.62 46.4608C213.558 46.536 213.545 46.4975 213.735 46.433C213.93 46.3667 214.263 46.3001 214.78 46.2807L214.64 44.2856L214.501 42.2905C213.08 42.3437 211.482 42.6678 210.494 43.8644L212.057 45.1626ZM214.64 44.2856L214.78 46.2807L228.99 45.7481L228.85 43.753L228.711 41.7578L214.501 42.2905L214.64 44.2856ZM228.85 43.753L228.99 45.7481C229.738 45.7201 230.928 45.578 231.716 44.7L230.204 43.3422L228.693 41.9844C228.793 41.8727 228.891 41.8051 228.956 41.7676C228.989 41.7488 229.015 41.7368 229.032 41.7297C229.049 41.7226 229.059 41.7197 229.059 41.7196C229.06 41.7194 229.053 41.7215 229.037 41.7248C229.022 41.7282 229 41.7323 228.969 41.7367C228.908 41.7454 228.823 41.7536 228.711 41.7578L228.85 43.753ZM230.204 43.3422L231.716 44.7C232.519 43.8062 232.578 42.609 232.518 41.7552L230.52 41.8301L228.521 41.905C228.529 42.0211 228.53 42.1102 228.527 42.1756C228.524 42.2414 228.518 42.2743 228.516 42.281C228.512 42.3003 228.537 42.1572 228.693 41.9844L230.204 43.3422ZM230.52 41.8301L232.518 41.7552L232.276 38.2836L230.277 38.3586L228.278 38.4335L228.521 41.905L230.52 41.8301ZM230.277 38.3586L232.276 38.2836C232.219 37.4816 232.008 36.1901 230.952 35.3742L229.757 36.9378L228.562 38.5014C228.305 38.3031 228.231 38.099 228.23 38.0952C228.227 38.0886 228.236 38.1108 228.247 38.1713C228.258 38.2311 228.27 38.317 228.278 38.4335L230.277 38.3586ZM229.757 36.9378L231.183 35.5825C230.276 34.6362 229.017 34.5451 228.209 34.5754L228.348 36.5705L228.488 38.5656C228.591 38.5618 228.665 38.5644 228.714 38.5685C228.763 38.5727 228.776 38.5776 228.762 38.5737C228.736 38.567 228.538 38.5097 228.33 38.2931L229.757 36.9378ZM228.348 36.5705L228.209 34.5754L212.62 35.1597L212.759 37.1548L212.899 39.15L228.488 38.5656L228.348 36.5705ZM212.759 37.1548L212.62 35.1597C212.54 35.1627 212.481 35.1618 212.441 35.1596C212.399 35.1574 212.385 35.1544 212.393 35.1558C212.4 35.1571 212.443 35.1652 212.51 35.1905C212.577 35.216 212.682 35.2642 212.803 35.3511L211.663 36.9559L210.524 38.5606C211.338 39.1475 212.316 39.1718 212.899 39.15L212.759 37.1548ZM211.663 36.9559L212.978 35.4921C213.18 35.6738 213.263 35.8552 213.288 35.9254C213.312 35.9896 213.299 35.9861 213.291 35.8747L211.293 35.9496L209.294 36.0245C209.34 36.6865 209.532 37.6858 210.349 38.4196L211.663 36.9559ZM211.293 35.9496L213.291 35.8747L213.174 34.1988L211.175 34.2737L209.177 34.3486L209.294 36.0245L211.293 35.9496ZM211.175 34.2737L213.174 34.1988C213.166 34.0818 213.181 34.0984 213.158 34.1959C213.132 34.3011 213.043 34.5702 212.766 34.8159L211.408 33.3048L210.051 31.7936C209.147 32.5941 209.135 33.7551 209.177 34.3486L211.175 34.2737ZM211.408 33.3048L212.92 34.6626C212.725 34.8798 212.53 34.9515 212.482 34.9669C212.435 34.9818 212.462 34.9656 212.606 34.9602L212.467 32.965L212.327 30.9699C211.679 30.9942 210.628 31.1329 209.896 31.947L211.408 33.3048ZM212.467 32.965L212.606 34.9602L238.928 33.9736L238.788 31.9784L238.649 29.9833L212.327 30.9699L212.467 32.965ZM238.788 31.9784L238.928 33.9736C239.42 33.9551 239.741 33.9962 239.931 34.0454C240.114 34.0928 240.11 34.1297 240.047 34.0682L241.421 32.6599L242.795 31.2516C241.654 30.1444 240.053 29.9307 238.649 29.9833L238.788 31.9784ZM241.421 32.6599L240.106 34.1236C240.033 34.0582 240.073 34.0534 240.143 34.2507C240.213 34.45 240.286 34.7797 240.321 35.2816L242.32 35.2067L244.319 35.1317C244.223 33.7623 243.874 32.2185 242.735 31.1962L241.421 32.6599ZM242.32 35.2067L240.321 35.2816L240.941 44.14L242.939 44.065L244.938 43.9901L244.319 35.1317L242.32 35.2067ZM242.939 44.065L240.941 44.14C240.976 44.64 240.95 44.9839 240.905 45.2052C240.861 45.424 240.812 45.4626 240.841 45.4274L242.404 46.7256L243.967 48.0238C244.89 46.9065 245.035 45.3838 244.938 43.9901L242.939 44.065ZM242.404 46.7256L240.892 45.3678C240.955 45.2972 240.961 45.3372 240.766 45.4004C240.568 45.4641 240.239 45.5265 239.736 45.5453L239.876 47.5405L240.015 49.5356C241.387 49.4842 242.926 49.1854 243.916 48.0834L242.404 46.7256ZM239.876 47.5405L239.736 45.5453L225.466 46.0802L225.606 48.0754L225.745 50.0705L240.015 49.5356L239.876 47.5405Z" fill="#2B2B2B" mask="url(#path-7-outside-4_493_7392)"/>
</svg>
