<svg width="148" height="81" viewBox="0 0 148 81" fill="none" xmlns="http://www.w3.org/2000/svg">
<circle cx="43.5" cy="40.5" r="40" fill="#3088F2"/>
<circle cx="107.5" cy="40.5" r="40" fill="#FF5A1B"/>
<rect x="0.5" y="23" width="147" height="40" fill="white"/>
<path d="M18.09 31.94H33.42V35.09H18.09V31.94ZM17.79 50.81L17.37 47.57C18.97 47.57 20.72 47.56 22.62 47.54C24.54 47.5 26.49 47.43 28.47 47.33C30.47 47.21 32.39 47.04 34.23 46.82L34.44 49.7C32.56 50.02 30.63 50.26 28.65 50.42C26.69 50.58 24.78 50.69 22.92 50.75C21.08 50.79 19.37 50.81 17.79 50.81ZM20.46 34.43H24.33V48.44H20.46V34.43ZM27.18 34.43H31.02V48.44H27.18V34.43ZM35.46 29.39H39.48V57.17H35.46V29.39ZM38.61 39.89H43.5V43.19H38.61V39.89ZM62.6077 29.36H66.5977V46.01H62.6077V29.36ZM65.4877 35.84H70.2877V39.11H65.4877V35.84ZM45.7477 41.75H48.0877C49.9077 41.75 51.5277 41.73 52.9477 41.69C54.3877 41.65 55.7177 41.57 56.9377 41.45C58.1777 41.31 59.4377 41.13 60.7177 40.91L61.0777 44.09C59.7977 44.33 58.5077 44.52 57.2077 44.66C55.9277 44.78 54.5477 44.86 53.0677 44.9C51.6077 44.94 49.9477 44.96 48.0877 44.96H45.7477V41.75ZM45.6877 31.01H58.3777V39.38H49.6777V43.7H45.7477V36.41H54.4477V34.19H45.6877V31.01ZM57.4777 46.61C59.4177 46.61 61.0877 46.82 62.4877 47.24C63.9077 47.66 64.9877 48.26 65.7277 49.04C66.4877 49.82 66.8677 50.77 66.8677 51.89C66.8677 53.55 66.0277 54.84 64.3477 55.76C62.6877 56.7 60.3977 57.17 57.4777 57.17C55.5577 57.17 53.8877 56.96 52.4677 56.54C51.0677 56.14 49.9877 55.54 49.2277 54.74C48.4677 53.94 48.0877 52.99 48.0877 51.89C48.0877 50.77 48.4677 49.82 49.2277 49.04C49.9877 48.26 51.0677 47.66 52.4677 47.24C53.8877 46.82 55.5577 46.61 57.4777 46.61ZM57.4777 49.64C56.2777 49.64 55.2677 49.72 54.4477 49.88C53.6477 50.04 53.0377 50.29 52.6177 50.63C52.2177 50.97 52.0177 51.39 52.0177 51.89C52.0177 52.41 52.2177 52.84 52.6177 53.18C53.0377 53.5 53.6477 53.74 54.4477 53.9C55.2677 54.06 56.2777 54.14 57.4777 54.14C58.6977 54.14 59.7077 54.06 60.5077 53.9C61.3277 53.74 61.9377 53.5 62.3377 53.18C62.7577 52.84 62.9677 52.41 62.9677 51.89C62.9677 51.39 62.7577 50.97 62.3377 50.63C61.9377 50.29 61.3277 50.04 60.5077 49.88C59.7077 49.72 58.6977 49.64 57.4777 49.64Z" fill="#FF5A1B"/>
<path d="M100.75 30.39H104.65V44.7H100.75V30.39ZM102.04 35.73H107.29V38.97H102.04V35.73ZM82 31.53H85.24V34.62H86.89V31.53H90.13V43.8H82V31.53ZM85.24 37.62V40.71H86.89V37.62H85.24ZM91.21 31.53H94.42V34.62H96.04V31.53H99.28V43.8H91.21V31.53ZM94.42 37.62V40.71H96.04V37.62H94.42ZM85.69 45.69H104.65V53.19H89.68V56.46H85.72V50.31H100.69V48.75H85.69V45.69ZM85.72 54.87H105.52V57.99H85.72V54.87ZM126.608 30.36H130.598V46.44H126.608V30.36ZM129.518 36.84H134.288V40.14H129.518V36.84ZM118.688 32.19H122.978C122.978 34.67 122.478 36.9 121.478 38.88C120.478 40.84 119.018 42.51 117.098 43.89C115.198 45.27 112.888 46.34 110.168 47.1L108.548 43.92C110.768 43.3 112.628 42.51 114.128 41.55C115.648 40.57 116.788 39.46 117.548 38.22C118.308 36.96 118.688 35.61 118.688 34.17V32.19ZM109.838 32.19H121.088V35.37H109.838V32.19ZM121.598 46.8C123.478 46.8 125.118 47.04 126.518 47.52C127.918 47.98 128.998 48.64 129.758 49.5C130.538 50.34 130.928 51.34 130.928 52.5C130.928 53.66 130.538 54.66 129.758 55.5C128.998 56.36 127.918 57.02 126.518 57.48C125.118 57.94 123.478 58.17 121.598 58.17C119.738 58.17 118.108 57.94 116.708 57.48C115.308 57.02 114.218 56.36 113.438 55.5C112.658 54.66 112.268 53.66 112.268 52.5C112.268 51.34 112.658 50.34 113.438 49.5C114.218 48.64 115.308 47.98 116.708 47.52C118.108 47.04 119.738 46.8 121.598 46.8ZM121.598 49.89C120.498 49.89 119.538 49.99 118.718 50.19C117.918 50.39 117.298 50.68 116.858 51.06C116.438 51.44 116.228 51.92 116.228 52.5C116.228 53.06 116.438 53.53 116.858 53.91C117.298 54.29 117.918 54.58 118.718 54.78C119.538 54.98 120.498 55.08 121.598 55.08C122.738 55.08 123.708 54.98 124.508 54.78C125.308 54.58 125.918 54.29 126.338 53.91C126.778 53.53 126.998 53.06 126.998 52.5C126.998 51.92 126.778 51.44 126.338 51.06C125.918 50.68 125.308 50.39 124.508 50.19C123.708 49.99 122.738 49.89 121.598 49.89Z" fill="#3088F2"/>
</svg>
