<svg width="284" height="200" viewBox="0 0 284 200" fill="none" xmlns="http://www.w3.org/2000/svg">
<g filter="url(#filter0_d_898_9026)">
<rect x="15" y="11" width="254" height="170" rx="10" fill="white" shape-rendering="crispEdges"/>
<path d="M71.1 67.6C75.1667 67.6 78.9667 68.2667 82.5 69.6C86.0333 70.8667 89.1667 72.6667 91.9 75C94.6333 77.3333 96.7667 80.1 98.3 83.3C99.8333 86.5 100.6 89.9667 100.6 93.7C100.6 97.5 99.8333 101 98.3 104.2C96.7667 107.4 94.6333 110.2 91.9 112.6C89.1667 115 86.0333 116.867 82.5 118.2C78.9667 119.467 75.1667 120.1 71.1 120.1C67.0333 120.1 63.2 119.467 59.6 118.2C56.0667 116.867 52.9333 115 50.2 112.6C47.4667 110.2 45.3333 107.4 43.8 104.2C42.3333 101 41.6 97.5 41.6 93.7C41.6 89.9667 42.3333 86.5 43.8 83.3C45.3333 80.1 47.4667 77.3333 50.2 75C52.9333 72.6667 56.0667 70.8667 59.6 69.6C63.2 68.2667 67.0333 67.6 71.1 67.6ZM71.1 78.9C67.9667 78.9 65.1333 79.5333 62.6 80.8C60.0667 82 58.0333 83.7 56.5 85.9C55.0333 88.1 54.3 90.7 54.3 93.7C54.3 96.7667 55.0333 99.4333 56.5 101.7C58.0333 103.967 60.0667 105.733 62.6 107C65.1333 108.2 67.9667 108.8 71.1 108.8C74.2333 108.8 77.0667 108.2 79.6 107C82.1333 105.733 84.1333 103.967 85.6 101.7C87.1333 99.4333 87.9 96.7667 87.9 93.7C87.9 90.7 87.1333 88.1 85.6 85.9C84.1333 83.7 82.1333 82 79.6 80.8C77.0667 79.5333 74.2333 78.9 71.1 78.9ZM213.092 67.6C217.159 67.6 220.959 68.2667 224.492 69.6C228.026 70.8667 231.159 72.6667 233.892 75C236.626 77.3333 238.759 80.1 240.292 83.3C241.826 86.5 242.592 89.9667 242.592 93.7C242.592 97.5 241.826 101 240.292 104.2C238.759 107.4 236.626 110.2 233.892 112.6C231.159 115 228.026 116.867 224.492 118.2C220.959 119.467 217.159 120.1 213.092 120.1C209.026 120.1 205.192 119.467 201.592 118.2C198.059 116.867 194.926 115 192.192 112.6C189.459 110.2 187.326 107.4 185.792 104.2C184.326 101 183.592 97.5 183.592 93.7C183.592 89.9667 184.326 86.5 185.792 83.3C187.326 80.1 189.459 77.3333 192.192 75C194.926 72.6667 198.059 70.8667 201.592 69.6C205.192 68.2667 209.026 67.6 213.092 67.6ZM213.092 78.9C209.959 78.9 207.126 79.5333 204.592 80.8C202.059 82 200.026 83.7 198.492 85.9C197.026 88.1 196.292 90.7 196.292 93.7C196.292 96.7667 197.026 99.4333 198.492 101.7C200.026 103.967 202.059 105.733 204.592 107C207.126 108.2 209.959 108.8 213.092 108.8C216.226 108.8 219.059 108.2 221.592 107C224.126 105.733 226.126 103.967 227.592 101.7C229.126 99.4333 229.892 96.7667 229.892 93.7C229.892 90.7 229.126 88.1 227.592 85.9C226.126 83.7 224.126 82 221.592 80.8C219.059 79.5333 216.226 78.9 213.092 78.9Z" fill="#2B2B2B"/>
</g>
<defs>
<filter id="filter0_d_898_9026" x="0" y="0" width="284" height="200" filterUnits="userSpaceOnUse" color-interpolation-filters="sRGB">
<feFlood flood-opacity="0" result="BackgroundImageFix"/>
<feColorMatrix in="SourceAlpha" type="matrix" values="0 0 0 0 0 0 0 0 0 0 0 0 0 0 0 0 0 0 127 0" result="hardAlpha"/>
<feOffset dy="4"/>
<feGaussianBlur stdDeviation="7.5"/>
<feComposite in2="hardAlpha" operator="out"/>
<feColorMatrix type="matrix" values="0 0 0 0 0 0 0 0 0 0 0 0 0 0 0 0 0 0 0.1 0"/>
<feBlend mode="normal" in2="BackgroundImageFix" result="effect1_dropShadow_898_9026"/>
<feBlend mode="normal" in="SourceGraphic" in2="effect1_dropShadow_898_9026" result="shape"/>
</filter>
</defs>
</svg>
