<svg width="260" height="247" viewBox="0 0 260 247" fill="none" xmlns="http://www.w3.org/2000/svg">
<path d="M9.09162 7.36364V19H6.63139V9.69886H6.56321L3.89844 11.3693V9.1875L6.77912 7.36364H9.09162Z" fill="black"/>
<rect x="48" y="35" width="22" height="28" rx="1" fill="#6DB7EB"/>
<rect x="21" y="35" width="22" height="28" rx="1" fill="#6DB7EB"/>
<rect x="75" y="35" width="22" height="28" rx="1" fill="#6DB7EB"/>
<rect x="48" y="69" width="22" height="28" rx="1" fill="#6DB7EB"/>
<rect x="21" y="69" width="22" height="28" rx="1" fill="#6DB7EB"/>
<rect x="75" y="69" width="22" height="28" rx="1" fill="#6DB7EB"/>
<rect x="48" width="22" height="28" rx="1" fill="#6DB7EB"/>
<rect x="21" width="22" height="28" rx="1" fill="#6DB7EB"/>
<rect x="75" width="22" height="28" rx="1" fill="#6DB7EB"/>
<path d="M5.47088 144.159C4.6224 144.159 3.86671 144.013 3.20384 143.722C2.54474 143.426 2.02391 143.021 1.64134 142.506C1.26255 141.987 1.06747 141.388 1.05611 140.71H3.53338C3.54853 140.994 3.64134 141.244 3.81179 141.46C3.98603 141.672 4.21709 141.837 4.50497 141.955C4.79285 142.072 5.11671 142.131 5.47656 142.131C5.85156 142.131 6.183 142.064 6.47088 141.932C6.75876 141.799 6.98414 141.616 7.14702 141.381C7.3099 141.146 7.39134 140.875 7.39134 140.568C7.39134 140.258 7.30421 139.983 7.12997 139.744C6.95952 139.502 6.71331 139.312 6.39134 139.176C6.07315 139.04 5.69437 138.972 5.25497 138.972H4.16974V137.165H5.25497C5.62618 137.165 5.95384 137.1 6.23793 136.972C6.52581 136.843 6.74929 136.665 6.90838 136.438C7.06747 136.206 7.14702 135.938 7.14702 135.631C7.14702 135.339 7.07694 135.083 6.93679 134.864C6.80043 134.64 6.60724 134.466 6.35724 134.341C6.11103 134.216 5.82315 134.153 5.49361 134.153C5.16027 134.153 4.85535 134.214 4.57884 134.335C4.30232 134.453 4.08073 134.621 3.91406 134.841C3.7474 135.061 3.65838 135.318 3.64702 135.614H1.28906C1.30043 134.943 1.49171 134.352 1.86293 133.841C2.23414 133.33 2.73414 132.93 3.36293 132.642C3.9955 132.35 4.70952 132.205 5.50497 132.205C6.308 132.205 7.01065 132.35 7.61293 132.642C8.2152 132.934 8.683 133.328 9.01634 133.824C9.35346 134.316 9.52012 134.869 9.51634 135.483C9.52012 136.134 9.31747 136.678 8.90838 137.114C8.50308 137.549 7.97467 137.826 7.32315 137.943V138.034C8.17921 138.144 8.83073 138.441 9.2777 138.926C9.72846 139.407 9.95194 140.009 9.94815 140.733C9.95194 141.396 9.76065 141.985 9.37429 142.5C8.99171 143.015 8.46331 143.42 7.78906 143.716C7.11482 144.011 6.34209 144.159 5.47088 144.159Z" fill="black"/>
<rect x="21" y="125" width="17" height="22" rx="1" fill="#6DB7EB"/>
<rect x="41" y="125" width="17" height="22" rx="1" fill="#6DB7EB"/>
<rect x="61" y="125" width="17" height="22" rx="1" fill="#6DB7EB"/>
<rect x="81" y="125" width="17" height="22" rx="1" fill="#6DB7EB"/>
<rect x="21" y="150" width="17" height="22" rx="1" fill="#6DB7EB"/>
<rect x="41" y="150" width="17" height="22" rx="1" fill="#6DB7EB"/>
<rect x="61" y="150" width="17" height="22" rx="1" fill="#6DB7EB"/>
<rect x="81" y="150" width="17" height="22" rx="1" fill="#6DB7EB"/>
<rect x="21" y="175" width="17" height="22" rx="1" fill="#6DB7EB"/>
<rect x="41" y="175" width="17" height="22" rx="1" fill="#6DB7EB"/>
<rect x="61" y="175" width="17" height="22" rx="1" fill="#6DB7EB"/>
<rect x="81" y="175" width="17" height="22" rx="1" fill="#6DB7EB"/>
<rect x="21" y="200" width="17" height="22" rx="1" fill="#6DB7EB"/>
<rect x="41" y="200" width="17" height="22" rx="1" fill="#6DB7EB"/>
<rect x="61" y="200" width="17" height="22" rx="1" fill="#6DB7EB"/>
<rect x="81" y="200" width="17" height="22" rx="1" fill="#6DB7EB"/>
<rect x="21" y="225" width="17" height="22" rx="1" fill="#6DB7EB"/>
<rect x="41" y="225" width="17" height="22" rx="1" fill="#6DB7EB"/>
<rect x="61" y="225" width="17" height="22" rx="1" fill="#6DB7EB"/>
<rect x="81" y="225" width="17" height="22" rx="1" fill="#6DB7EB"/>
<path d="M151.404 19V17.2273L155.546 13.392C155.898 13.0511 156.194 12.7443 156.433 12.4716C156.675 12.1989 156.859 11.9318 156.984 11.6705C157.109 11.4053 157.171 11.1193 157.171 10.8125C157.171 10.4716 157.094 10.178 156.938 9.93182C156.783 9.68182 156.571 9.49053 156.302 9.35795C156.033 9.22159 155.728 9.15341 155.387 9.15341C155.031 9.15341 154.72 9.22538 154.455 9.36932C154.19 9.51326 153.986 9.7197 153.842 9.98864C153.698 10.2576 153.626 10.5777 153.626 10.9489H151.29C151.29 10.1875 151.463 9.52652 151.808 8.96591C152.152 8.4053 152.635 7.97159 153.256 7.66477C153.878 7.35795 154.594 7.20455 155.404 7.20455C156.237 7.20455 156.963 7.35227 157.58 7.64773C158.201 7.93939 158.684 8.3447 159.029 8.86364C159.374 9.38258 159.546 9.97727 159.546 10.6477C159.546 11.0871 159.459 11.5208 159.285 11.9489C159.114 12.3769 158.809 12.8523 158.37 13.375C157.931 13.8939 157.311 14.517 156.512 15.2443L154.813 16.9091V16.9886H159.7V19H151.404Z" fill="black"/>
<rect x="171" y="26" width="18" height="23" rx="1" fill="#6DB7EB"/>
<rect x="192" y="26" width="18" height="23" rx="1" fill="#6DB7EB"/>
<rect x="213" y="26" width="18" height="23" rx="1" fill="#6DB7EB"/>
<rect x="234" y="26" width="18" height="23" rx="1" fill="#6DB7EB"/>
<rect x="171" width="18" height="23" rx="1" fill="#6DB7EB"/>
<rect x="192" width="18" height="23" rx="1" fill="#6DB7EB"/>
<rect x="213" width="18" height="23" rx="1" fill="#6DB7EB"/>
<rect x="234" width="18" height="23" rx="1" fill="#6DB7EB"/>
<rect x="171" y="78" width="18" height="23" rx="1" fill="#6DB7EB"/>
<rect x="192" y="78" width="18" height="23" rx="1" fill="#6DB7EB"/>
<rect x="213" y="78" width="18" height="23" rx="1" fill="#6DB7EB"/>
<rect x="234" y="78" width="18" height="23" rx="1" fill="#6DB7EB"/>
<rect x="171" y="52" width="18" height="23" rx="1" fill="#6DB7EB"/>
<rect x="192" y="52" width="18" height="23" rx="1" fill="#6DB7EB"/>
<rect x="213" y="52" width="18" height="23" rx="1" fill="#6DB7EB"/>
<rect x="234" y="52" width="18" height="23" rx="1" fill="#6DB7EB"/>
<path d="M152.845 141.955V140.017L157.703 132.364H159.374V135.045H158.385L155.322 139.892V139.983H162.226V141.955H152.845ZM158.43 144V141.364L158.476 140.506V132.364H160.783V144H158.43Z" fill="black"/>
<rect x="173" y="125" width="15" height="19" rx="1" fill="#6DB7EB"/>
<rect x="191" y="125" width="15" height="19" rx="1" fill="#6DB7EB"/>
<rect x="209" y="125" width="15" height="19" rx="1" fill="#6DB7EB"/>
<rect x="227" y="125" width="15" height="19" rx="1" fill="#6DB7EB"/>
<rect x="245" y="125" width="15" height="19" rx="1" fill="#6DB7EB"/>
<rect x="173" y="146" width="15" height="19" rx="1" fill="#6DB7EB"/>
<rect x="191" y="146" width="15" height="19" rx="1" fill="#6DB7EB"/>
<rect x="209" y="146" width="15" height="19" rx="1" fill="#6DB7EB"/>
<rect x="227" y="146" width="15" height="19" rx="1" fill="#6DB7EB"/>
<rect x="245" y="146" width="15" height="19" rx="1" fill="#6DB7EB"/>
<rect x="173" y="167" width="15" height="19" rx="1" fill="#6DB7EB"/>
<rect x="191" y="167" width="15" height="19" rx="1" fill="#6DB7EB"/>
<rect x="209" y="167" width="15" height="19" rx="1" fill="#6DB7EB"/>
<rect x="227" y="167" width="15" height="19" rx="1" fill="#6DB7EB"/>
<rect x="245" y="167" width="15" height="19" rx="1" fill="#6DB7EB"/>
<rect x="173" y="188" width="15" height="19" rx="1" fill="#6DB7EB"/>
<rect x="191" y="188" width="15" height="19" rx="1" fill="#6DB7EB"/>
<rect x="209" y="188" width="15" height="19" rx="1" fill="#6DB7EB"/>
<rect x="227" y="188" width="15" height="19" rx="1" fill="#6DB7EB"/>
<rect x="245" y="188" width="15" height="19" rx="1" fill="#6DB7EB"/>
<rect x="173" y="209" width="15" height="19" rx="1" fill="#6DB7EB"/>
<rect x="191" y="209" width="15" height="19" rx="1" fill="#6DB7EB"/>
<rect x="209" y="209" width="15" height="19" rx="1" fill="#6DB7EB"/>
<rect x="227" y="209" width="15" height="19" rx="1" fill="#6DB7EB"/>
<rect x="245" y="209" width="15" height="19" rx="1" fill="#6DB7EB"/>
</svg>
