<svg width="284" height="200" viewBox="0 0 284 200" fill="none" xmlns="http://www.w3.org/2000/svg">
<g filter="url(#filter0_d_898_9042)">
<rect x="15" y="11" width="254" height="170" rx="10" fill="white" shape-rendering="crispEdges"/>
<path d="M92.5 48.3H105.5V96H92.5V48.3ZM96.8 66.1H114.3V76.9H96.8V66.1ZM30 52.1H40.8V62.4H46.3V52.1H57.1V93H30V52.1ZM40.8 72.4V82.7H46.3V72.4H40.8ZM60.7 52.1H71.4V62.4H76.8V52.1H87.6V93H60.7V52.1ZM71.4 72.4V82.7H76.8V72.4H71.4ZM42.3 99.3H105.5V124.3H55.6V135.2H42.4V114.7H92.3V109.5H42.3V99.3ZM42.4 129.9H108.4V140.3H42.4V129.9ZM230.592 48.2H243.892V101.8H230.592V48.2ZM240.292 69.8H256.192V80.8H240.292V69.8ZM204.192 54.3H218.492C218.492 62.5667 216.826 70 213.492 76.6C210.159 83.1333 205.292 88.7 198.892 93.3C192.559 97.9 184.859 101.467 175.792 104L170.392 93.4C177.792 91.3333 183.992 88.7 188.992 85.5C194.059 82.2333 197.859 78.5333 200.392 74.4C202.926 70.2 204.192 65.7 204.192 60.9V54.3ZM174.692 54.3H212.192V64.9H174.692V54.3ZM213.892 103C220.159 103 225.626 103.8 230.292 105.4C234.959 106.933 238.559 109.133 241.092 112C243.692 114.8 244.992 118.133 244.992 122C244.992 125.867 243.692 129.2 241.092 132C238.559 134.867 234.959 137.067 230.292 138.6C225.626 140.133 220.159 140.9 213.892 140.9C207.692 140.9 202.259 140.133 197.592 138.6C192.926 137.067 189.292 134.867 186.692 132C184.092 129.2 182.792 125.867 182.792 122C182.792 118.133 184.092 114.8 186.692 112C189.292 109.133 192.926 106.933 197.592 105.4C202.259 103.8 207.692 103 213.892 103ZM213.892 113.3C210.226 113.3 207.026 113.633 204.292 114.3C201.626 114.967 199.559 115.933 198.092 117.2C196.692 118.467 195.992 120.067 195.992 122C195.992 123.867 196.692 125.433 198.092 126.7C199.559 127.967 201.626 128.933 204.292 129.6C207.026 130.267 210.226 130.6 213.892 130.6C217.692 130.6 220.926 130.267 223.592 129.6C226.259 128.933 228.292 127.967 229.692 126.7C231.159 125.433 231.892 123.867 231.892 122C231.892 120.067 231.159 118.467 229.692 117.2C228.292 115.933 226.259 114.967 223.592 114.3C220.926 113.633 217.692 113.3 213.892 113.3Z" fill="#008001"/>
</g>
<defs>
<filter id="filter0_d_898_9042" x="0" y="0" width="284" height="200" filterUnits="userSpaceOnUse" color-interpolation-filters="sRGB">
<feFlood flood-opacity="0" result="BackgroundImageFix"/>
<feColorMatrix in="SourceAlpha" type="matrix" values="0 0 0 0 0 0 0 0 0 0 0 0 0 0 0 0 0 0 127 0" result="hardAlpha"/>
<feOffset dy="4"/>
<feGaussianBlur stdDeviation="7.5"/>
<feComposite in2="hardAlpha" operator="out"/>
<feColorMatrix type="matrix" values="0 0 0 0 0 0 0 0 0 0 0 0 0 0 0 0 0 0 0.1 0"/>
<feBlend mode="normal" in2="BackgroundImageFix" result="effect1_dropShadow_898_9042"/>
<feBlend mode="normal" in="SourceGraphic" in2="effect1_dropShadow_898_9042" result="shape"/>
</filter>
</defs>
</svg>
